<?xml version="1.0" standalone="no"?>
<!DOCTYPE svg PUBLIC "-//W3C//DTD SVG 20010904//EN"
 "http://www.w3.org/TR/2001/REC-SVG-20010904/DTD/svg10.dtd">
<svg version="1.0" xmlns="http://www.w3.org/2000/svg"
 width="512.000000pt" height="512.000000pt" viewBox="0 0 512.000000 512.000000"
 preserveAspectRatio="xMidYMid meet">
<metadata>
Created by potrace 1.11, written by Peter Selinger 2001-2013
</metadata>
<g transform="translate(0.000000,512.000000) scale(0.100000,-0.100000)"
fill="#000000" stroke="none">
<path d="M1983 4402 c-22 -42 -64 -122 -93 -177 -29 -55 -69 -131 -90 -170
-62 -116 -122 -231 -215 -410 -49 -93 -99 -187 -112 -207 -13 -21 -23 -40 -23
-43 0 -2 -85 -166 -189 -362 -103 -197 -216 -412 -251 -478 -34 -66 -79 -151
-100 -190 -74 -139 -129 -242 -195 -370 -37 -71 -80 -152 -95 -180 -15 -27
-55 -104 -90 -170 -34 -66 -79 -151 -100 -190 -21 -38 -66 -124 -100 -190 -35
-66 -80 -151 -100 -190 -21 -38 -63 -119 -95 -180 -32 -60 -75 -143 -97 -182
-26 -48 -35 -73 -26 -74 58 -2 5108 -3 5108 -1 0 2 -20 40 -44 85 -24 45 -85
161 -136 257 -51 96 -112 211 -135 255 -49 92 -123 234 -220 420 -37 72 -76
144 -85 160 -10 17 -50 93 -90 170 -40 77 -89 172 -110 210 -38 72 -97 183
-190 360 -29 55 -73 138 -98 185 -74 141 -136 258 -202 385 -35 66 -77 147
-95 180 -18 33 -64 121 -103 195 -39 74 -93 177 -120 228 l-49 93 -38 -73
c-21 -40 -50 -95 -65 -123 -15 -27 -58 -108 -95 -180 -75 -145 -154 -294 -195
-370 -15 -27 -47 -88 -70 -135 -76 -148 -66 -144 -116 -50 -24 44 -78 147
-120 228 -42 81 -91 174 -109 207 -18 33 -58 110 -90 170 -65 125 -114 217
-242 460 -50 94 -123 233 -164 310 -40 77 -82 157 -94 177 l-21 37 -41 -77z
m213 -899 c92 -175 181 -345 199 -378 18 -33 64 -121 104 -197 l71 -136 -56
-32 c-82 -46 -134 -44 -222 8 -103 61 -152 75 -267 75 -108 0 -176 -19 -260
-71 -40 -25 -106 -48 -135 -47 -27 2 -64 17 -107 43 l-42 27 66 125 c36 69 86
163 111 210 24 47 61 117 82 155 21 39 62 117 92 175 138 263 190 360 193 360
2 0 79 -143 171 -317z m1374 -578 c51 -99 96 -184 100 -190 4 -5 44 -80 89
-166 l81 -157 -26 -17 c-41 -26 -79 -21 -167 24 -140 71 -260 71 -404 1 -44
-22 -88 -40 -97 -40 -9 0 -26 21 -40 49 l-25 48 30 59 c46 88 224 426 281 532
l50 94 17 -29 c10 -15 59 -109 111 -208z m-1405 -436 c114 -57 169 -69 275
-64 83 4 139 21 218 66 30 17 55 29 56 27 3 -3 71 -131 166 -313 116 -222 175
-333 206 -392 18 -34 86 -162 150 -285 64 -123 129 -245 144 -273 44 -79 160
-302 160 -306 0 -3 -682 -5 -1515 -5 -833 0 -1515 2 -1515 4 0 3 25 52 56 111
31 58 78 147 104 196 26 50 68 128 92 175 25 47 70 132 100 190 65 122 323
613 411 780 33 63 61 116 62 118 2 2 31 -13 66 -32 87 -47 157 -63 259 -60 95
3 144 18 238 70 113 64 126 63 267 -7z m1369 -356 c92 -47 151 -62 234 -59 71
3 166 29 195 54 9 8 19 13 21 11 1 -2 31 -58 66 -124 34 -66 84 -160 110 -210
26 -49 114 -216 195 -370 81 -154 172 -326 201 -382 30 -56 54 -103 54 -105 0
-3 -162 -4 -361 -4 l-361 1 -52 100 c-29 55 -78 150 -110 210 -32 61 -80 151
-106 200 -26 50 -71 135 -100 190 -29 55 -70 132 -90 170 -20 39 -62 117 -93
175 l-55 106 71 37 c39 20 80 37 91 37 11 0 51 -16 90 -37z"/>
</g>
</svg>
